<svg width="40" height="40" viewBox="0 0 40 40" fill="none" xmlns="http://www.w3.org/2000/svg">
<path d="M25.1423 29.27C25.1715 29.2759 25.201 29.279 25.2304 29.279C25.3284 29.279 25.4252 29.247 25.5147 29.1858L39.6 19.5331C39.8918 19.334 40.0512 18.8575 39.9853 18.3856C39.9186 17.9152 39.6434 17.5766 39.323 17.5711C39.2082 17.569 27.8035 17.2044 22.7427 2.00872C22.2648 0.574691 21.0884 -0.281844 20.0717 0.0846988L8.31497 4.34055C7.74753 4.54617 7.29555 5.08942 7.07551 5.83012C6.86015 6.55426 6.89029 7.39634 7.15755 8.14103C9.19968 13.8385 15.0408 27.3 25.1423 29.27ZM8.32307 6.66801C8.36916 6.51394 8.4826 6.39258 8.6349 6.33856L20.3921 2.0829C20.4502 2.0614 20.5122 2.05075 20.5756 2.05075C20.9534 2.05075 21.3501 2.42034 21.5196 2.92897C25.4427 14.7076 32.8909 18.1803 36.7886 19.2026L25.1257 27.1955C15.7677 25.2133 10.2886 12.5494 8.35941 7.1679C8.31434 7.03874 8.27066 6.84662 8.32307 6.66801Z" fill="#8B8484"/>
<path d="M24.8564 37.8335H0V39.9991H24.8564V37.8335Z" fill="#8B8484"/>
<path d="M39.3161 30.4175V28.2527L25.2275 37.8334V39.9999L39.3161 30.4175Z" fill="#8B8484"/>
<path d="M39.3161 27.4966H35.6533L25.1433 35.0336L24.6853 35.0367C18.3303 35.0367 13.2118 33.3476 9.38521 31.3634L0 37.0459H24.8997L39.3161 27.4966Z" fill="#8B8484"/>
<path d="M2.67765 24.456C5.40902 27.049 13.0495 33.0786 24.9876 32.9753L38.8985 22.9996C38.8985 22.9996 38.1487 23.0056 36.9203 22.9514L25.0329 31.0985L24.8387 31.0605C18.0416 29.7343 13.1876 23.2213 10.1392 17.4521L2.79653 22.447C2.10894 22.9155 2.03918 23.8504 2.67765 24.456Z" fill="#8B8484"/>
</svg>
